<svg width="23" height="8" viewBox="0 0 23 8" fill="none" xmlns="http://www.w3.org/2000/svg">
<path d="M0.76543 1.75V0.71H2.84543V8H1.69543V1.75H0.76543ZM4.41152 4.26C4.41152 3.10667 4.60486 2.20667 4.99152 1.56C5.38486 0.906666 6.05819 0.58 7.01152 0.58C7.96486 0.58 8.63486 0.906666 9.02152 1.56C9.41486 2.20667 9.61152 3.10667 9.61152 4.26C9.61152 5.42667 9.41486 6.34 9.02152 7C8.63486 7.65333 7.96486 7.98 7.01152 7.98C6.05819 7.98 5.38486 7.65333 4.99152 7C4.60486 6.34 4.41152 5.42667 4.41152 4.26ZM8.49152 4.26C8.49152 3.72 8.45486 3.26333 8.38152 2.89C8.31486 2.51667 8.17486 2.21333 7.96152 1.98C7.74819 1.74 7.43152 1.62 7.01152 1.62C6.59152 1.62 6.27486 1.74 6.06152 1.98C5.84819 2.21333 5.70486 2.51667 5.63152 2.89C5.56486 3.26333 5.53152 3.72 5.53152 4.26C5.53152 4.82 5.56486 5.29 5.63152 5.67C5.69819 6.05 5.83819 6.35667 6.05152 6.59C6.27152 6.82333 6.59152 6.94 7.01152 6.94C7.43152 6.94 7.74819 6.82333 7.96152 6.59C8.18152 6.35667 8.32486 6.05 8.39152 5.67C8.45819 5.29 8.49152 4.82 8.49152 4.26ZM14.7978 8L12.1078 4.89V8H10.9678V1.05H12.1078V4.22L14.8078 1.05H16.2378L13.2178 4.53L16.2878 8H14.7978ZM22.6659 4.87H20.6459V6.94H19.5859V4.87H17.5659V3.91H19.5859V1.84H20.6459V3.91H22.6659V4.87Z" fill="white"/>
</svg>
