<svg width="182" height="21" viewBox="0 0 182 21" fill="none" xmlns="http://www.w3.org/2000/svg">
<path d="M16.56 12.746V11.78L21.474 4.976H23V11.64H24.4V12.746H23V15H21.74V12.746H16.56ZM21.796 6.306L18.03 11.64H21.796V6.306ZM25.6727 9.834C25.6727 8.22867 25.934 6.978 26.4567 6.082C26.9794 5.17667 27.894 4.724 29.2007 4.724C30.498 4.724 31.408 5.17667 31.9307 6.082C32.4534 6.978 32.7147 8.22867 32.7147 9.834C32.7147 11.4673 32.4534 12.7367 31.9307 13.642C31.408 14.5473 30.498 15 29.2007 15C27.894 15 26.9794 14.5473 26.4567 13.642C25.934 12.7367 25.6727 11.4673 25.6727 9.834ZM31.4547 9.834C31.4547 9.022 31.3987 8.336 31.2867 7.776C31.184 7.20667 30.9647 6.74933 30.6287 6.404C30.302 6.05867 29.826 5.886 29.2007 5.886C28.566 5.886 28.0807 6.05867 27.7447 6.404C27.418 6.74933 27.1987 7.20667 27.0867 7.776C26.984 8.336 26.9327 9.022 26.9327 9.834C26.9327 10.674 26.984 11.3787 27.0867 11.948C27.1987 12.5173 27.418 12.9747 27.7447 13.32C28.0807 13.6653 28.566 13.838 29.2007 13.838C29.826 13.838 30.302 13.6653 30.6287 13.32C30.9647 12.9747 31.184 12.5173 31.2867 11.948C31.3987 11.3787 31.4547 10.674 31.4547 9.834ZM37.9301 10.114C37.9301 9.162 38.1448 8.308 38.5741 7.552C39.0035 6.78667 39.5868 6.18933 40.3241 5.76C41.0708 5.33067 41.8968 5.116 42.8021 5.116C43.8661 5.116 44.7948 5.37267 45.5881 5.886C46.3815 6.39933 46.9601 7.12733 47.3241 8.07H45.7981C45.5275 7.482 45.1355 7.02933 44.6221 6.712C44.1181 6.39467 43.5115 6.236 42.8021 6.236C42.1208 6.236 41.5095 6.39467 40.9681 6.712C40.4268 7.02933 40.0021 7.482 39.6941 8.07C39.3861 8.64867 39.2321 9.33 39.2321 10.114C39.2321 10.8887 39.3861 11.57 39.6941 12.158C40.0021 12.7367 40.4268 13.1847 40.9681 13.502C41.5095 13.8193 42.1208 13.978 42.8021 13.978C43.5115 13.978 44.1181 13.824 44.6221 13.516C45.1355 13.1987 45.5275 12.746 45.7981 12.158H47.3241C46.9601 13.0913 46.3815 13.8147 45.5881 14.328C44.7948 14.832 43.8661 15.084 42.8021 15.084C41.8968 15.084 41.0708 14.874 40.3241 14.454C39.5868 14.0247 39.0035 13.432 38.5741 12.676C38.1448 11.92 37.9301 11.066 37.9301 10.114ZM50.4946 4.64V15H49.2206V4.64H50.4946ZM52.1899 11.136C52.1899 10.352 52.3486 9.666 52.6659 9.078C52.9832 8.48067 53.4172 8.01867 53.9679 7.692C54.5279 7.36533 55.1486 7.202 55.8299 7.202C56.5019 7.202 57.0852 7.34667 57.5799 7.636C58.0746 7.92533 58.4432 8.28933 58.6859 8.728V7.328H59.9739V15H58.6859V13.572C58.4339 14.02 58.0559 14.3933 57.5519 14.692C57.0572 14.9813 56.4786 15.126 55.8159 15.126C55.1346 15.126 54.5186 14.958 53.9679 14.622C53.4172 14.286 52.9832 13.8147 52.6659 13.208C52.3486 12.6013 52.1899 11.9107 52.1899 11.136ZM58.6859 11.15C58.6859 10.5713 58.5692 10.0673 58.3359 9.638C58.1026 9.20867 57.7852 8.882 57.3839 8.658C56.9919 8.42467 56.5579 8.308 56.0819 8.308C55.6059 8.308 55.1719 8.42 54.7799 8.644C54.3879 8.868 54.0752 9.19467 53.8419 9.624C53.6086 10.0533 53.4919 10.5573 53.4919 11.136C53.4919 11.724 53.6086 12.2373 53.8419 12.676C54.0752 13.1053 54.3879 13.4367 54.7799 13.67C55.1719 13.894 55.6059 14.006 56.0819 14.006C56.5579 14.006 56.9919 13.894 57.3839 13.67C57.7852 13.4367 58.1026 13.1053 58.3359 12.676C58.5692 12.2373 58.6859 11.7287 58.6859 11.15ZM64.8428 15.126C64.2548 15.126 63.7275 15.028 63.2608 14.832C62.7942 14.6267 62.4255 14.3467 62.1548 13.992C61.8842 13.628 61.7348 13.2127 61.7068 12.746H63.0228C63.0602 13.1287 63.2375 13.4413 63.5548 13.684C63.8815 13.9267 64.3062 14.048 64.8288 14.048C65.3142 14.048 65.6968 13.9407 65.9768 13.726C66.2568 13.5113 66.3968 13.2407 66.3968 12.914C66.3968 12.578 66.2475 12.3307 65.9488 12.172C65.6502 12.004 65.1882 11.8407 64.5628 11.682C63.9935 11.5327 63.5268 11.3833 63.1628 11.234C62.8082 11.0753 62.5002 10.8467 62.2388 10.548C61.9868 10.24 61.8608 9.83867 61.8608 9.344C61.8608 8.952 61.9775 8.59267 62.2108 8.266C62.4442 7.93933 62.7755 7.68267 63.2048 7.496C63.6342 7.3 64.1242 7.202 64.6748 7.202C65.5242 7.202 66.2102 7.41667 66.7328 7.846C67.2555 8.27533 67.5355 8.86333 67.5728 9.61H66.2988C66.2708 9.20867 66.1075 8.88667 65.8088 8.644C65.5195 8.40133 65.1275 8.28 64.6328 8.28C64.1755 8.28 63.8115 8.378 63.5408 8.574C63.2702 8.77 63.1348 9.02667 63.1348 9.344C63.1348 9.596 63.2142 9.806 63.3728 9.974C63.5408 10.1327 63.7462 10.2633 63.9888 10.366C64.2408 10.4593 64.5862 10.5667 65.0248 10.688C65.5755 10.8373 66.0235 10.9867 66.3688 11.136C66.7142 11.276 67.0082 11.4907 67.2508 11.78C67.5028 12.0693 67.6335 12.4473 67.6428 12.914C67.6428 13.334 67.5262 13.712 67.2928 14.048C67.0595 14.384 66.7282 14.65 66.2988 14.846C65.8788 15.0327 65.3935 15.126 64.8428 15.126ZM72.1573 15.126C71.5693 15.126 71.0419 15.028 70.5753 14.832C70.1086 14.6267 69.7399 14.3467 69.4693 13.992C69.1986 13.628 69.0493 13.2127 69.0213 12.746H70.3373C70.3746 13.1287 70.5519 13.4413 70.8693 13.684C71.1959 13.9267 71.6206 14.048 72.1433 14.048C72.6286 14.048 73.0113 13.9407 73.2913 13.726C73.5713 13.5113 73.7113 13.2407 73.7113 12.914C73.7113 12.578 73.5619 12.3307 73.2633 12.172C72.9646 12.004 72.5026 11.8407 71.8773 11.682C71.3079 11.5327 70.8413 11.3833 70.4773 11.234C70.1226 11.0753 69.8146 10.8467 69.5533 10.548C69.3013 10.24 69.1753 9.83867 69.1753 9.344C69.1753 8.952 69.2919 8.59267 69.5253 8.266C69.7586 7.93933 70.0899 7.68267 70.5193 7.496C70.9486 7.3 71.4386 7.202 71.9893 7.202C72.8386 7.202 73.5246 7.41667 74.0473 7.846C74.5699 8.27533 74.8499 8.86333 74.8873 9.61H73.6133C73.5853 9.20867 73.4219 8.88667 73.1233 8.644C72.8339 8.40133 72.4419 8.28 71.9473 8.28C71.4899 8.28 71.1259 8.378 70.8553 8.574C70.5846 8.77 70.4493 9.02667 70.4493 9.344C70.4493 9.596 70.5286 9.806 70.6873 9.974C70.8553 10.1327 71.0606 10.2633 71.3033 10.366C71.5553 10.4593 71.9006 10.5667 72.3393 10.688C72.8899 10.8373 73.3379 10.9867 73.6833 11.136C74.0286 11.276 74.3226 11.4907 74.5653 11.78C74.8173 12.0693 74.9479 12.4473 74.9573 12.914C74.9573 13.334 74.8406 13.712 74.6073 14.048C74.3739 14.384 74.0426 14.65 73.6133 14.846C73.1933 15.0327 72.7079 15.126 72.1573 15.126ZM83.7557 10.87C83.7557 11.1127 83.7417 11.3693 83.7137 11.64H77.5817C77.6284 12.396 77.8851 12.9887 78.3517 13.418C78.8277 13.838 79.4017 14.048 80.0737 14.048C80.6244 14.048 81.0817 13.922 81.4457 13.67C81.8191 13.4087 82.0804 13.0633 82.2297 12.634H83.6017C83.3964 13.3713 82.9857 13.9733 82.3697 14.44C81.7537 14.8973 80.9884 15.126 80.0737 15.126C79.3457 15.126 78.6924 14.9627 78.1137 14.636C77.5444 14.3093 77.0964 13.8473 76.7697 13.25C76.4431 12.6433 76.2797 11.9433 76.2797 11.15C76.2797 10.3567 76.4384 9.66133 76.7557 9.064C77.0731 8.46667 77.5164 8.00933 78.0857 7.692C78.6644 7.36533 79.3271 7.202 80.0737 7.202C80.8017 7.202 81.4457 7.36067 82.0057 7.678C82.5657 7.99533 82.9951 8.434 83.2937 8.994C83.6017 9.54467 83.7557 10.17 83.7557 10.87ZM82.4397 10.604C82.4397 10.1187 82.3324 9.70333 82.1177 9.358C81.9031 9.00333 81.6091 8.73733 81.2357 8.56C80.8717 8.37333 80.4657 8.28 80.0177 8.28C79.3737 8.28 78.8231 8.48533 78.3657 8.896C77.9177 9.30667 77.6611 9.876 77.5957 10.604H82.4397ZM88.1534 15.126C87.5654 15.126 87.038 15.028 86.5714 14.832C86.1047 14.6267 85.736 14.3467 85.4654 13.992C85.1947 13.628 85.0454 13.2127 85.0174 12.746H86.3334C86.3707 13.1287 86.548 13.4413 86.8654 13.684C87.192 13.9267 87.6167 14.048 88.1394 14.048C88.6247 14.048 89.0074 13.9407 89.2874 13.726C89.5674 13.5113 89.7074 13.2407 89.7074 12.914C89.7074 12.578 89.558 12.3307 89.2594 12.172C88.9607 12.004 88.4987 11.8407 87.8734 11.682C87.304 11.5327 86.8374 11.3833 86.4734 11.234C86.1187 11.0753 85.8107 10.8467 85.5494 10.548C85.2974 10.24 85.1714 9.83867 85.1714 9.344C85.1714 8.952 85.288 8.59267 85.5214 8.266C85.7547 7.93933 86.086 7.68267 86.5154 7.496C86.9447 7.3 87.4347 7.202 87.9854 7.202C88.8347 7.202 89.5207 7.41667 90.0434 7.846C90.566 8.27533 90.846 8.86333 90.8834 9.61H89.6094C89.5814 9.20867 89.418 8.88667 89.1194 8.644C88.83 8.40133 88.438 8.28 87.9434 8.28C87.486 8.28 87.122 8.378 86.8514 8.574C86.5807 8.77 86.4454 9.02667 86.4454 9.344C86.4454 9.596 86.5247 9.806 86.6834 9.974C86.8514 10.1327 87.0567 10.2633 87.2994 10.366C87.5514 10.4593 87.8967 10.5667 88.3354 10.688C88.886 10.8373 89.334 10.9867 89.6794 11.136C90.0247 11.276 90.3187 11.4907 90.5614 11.78C90.8134 12.0693 90.944 12.4473 90.9534 12.914C90.9534 13.334 90.8367 13.712 90.6034 14.048C90.37 14.384 90.0387 14.65 89.6094 14.846C89.1894 15.0327 88.704 15.126 88.1534 15.126Z" fill="#9DA6A5"/>
<path d="M6 10C6 11.6569 4.65685 13 3 13C1.34315 13 0 11.6569 0 10C0 8.34315 1.34315 7 3 7C4.65685 7 6 8.34315 6 10Z" fill="#1EBFC1"/>
<path d="M108 10C108 11.6569 106.657 13 105 13C103.343 13 102 11.6569 102 10C102 8.34315 103.343 7 105 7C106.657 7 108 8.34315 108 10Z" fill="#1EBFC1"/>
<path d="M118.84 7.426C118.905 6.56733 119.237 5.89533 119.834 5.41C120.431 4.92467 121.206 4.682 122.158 4.682C122.793 4.682 123.339 4.79867 123.796 5.032C124.263 5.256 124.613 5.564 124.846 5.956C125.089 6.348 125.21 6.79133 125.21 7.286C125.21 7.86467 125.042 8.364 124.706 8.784C124.379 9.204 123.95 9.47467 123.418 9.596V9.666C124.025 9.81533 124.505 10.1093 124.86 10.548C125.215 10.9867 125.392 11.5607 125.392 12.27C125.392 12.802 125.271 13.2827 125.028 13.712C124.785 14.132 124.421 14.4633 123.936 14.706C123.451 14.9487 122.867 15.07 122.186 15.07C121.197 15.07 120.385 14.8133 119.75 14.3C119.115 13.7773 118.761 13.04 118.686 12.088H119.918C119.983 12.648 120.212 13.1053 120.604 13.46C120.996 13.8147 121.519 13.992 122.172 13.992C122.825 13.992 123.32 13.824 123.656 13.488C124.001 13.1427 124.174 12.6993 124.174 12.158C124.174 11.458 123.941 10.954 123.474 10.646C123.007 10.338 122.303 10.184 121.36 10.184H121.038V9.12H121.374C122.233 9.11067 122.881 8.97067 123.32 8.7C123.759 8.42 123.978 7.99067 123.978 7.412C123.978 6.91733 123.815 6.52067 123.488 6.222C123.171 5.92333 122.713 5.774 122.116 5.774C121.537 5.774 121.071 5.92333 120.716 6.222C120.361 6.52067 120.151 6.922 120.086 7.426H118.84ZM140.953 5.312V15H139.679V7.776L136.459 15H135.563L132.329 7.762V15H131.055V5.312H132.427L136.011 13.32L139.595 5.312H140.953ZM146.459 15.126C145.74 15.126 145.087 14.9627 144.499 14.636C143.92 14.3093 143.463 13.8473 143.127 13.25C142.8 12.6433 142.637 11.9433 142.637 11.15C142.637 10.366 142.805 9.67533 143.141 9.078C143.486 8.47133 143.953 8.00933 144.541 7.692C145.129 7.36533 145.787 7.202 146.515 7.202C147.243 7.202 147.901 7.36533 148.489 7.692C149.077 8.00933 149.539 8.46667 149.875 9.064C150.22 9.66133 150.393 10.3567 150.393 11.15C150.393 11.9433 150.216 12.6433 149.861 13.25C149.516 13.8473 149.044 14.3093 148.447 14.636C147.85 14.9627 147.187 15.126 146.459 15.126ZM146.459 14.006C146.916 14.006 147.346 13.8987 147.747 13.684C148.148 13.4693 148.47 13.1473 148.713 12.718C148.965 12.2887 149.091 11.766 149.091 11.15C149.091 10.534 148.97 10.0113 148.727 9.582C148.484 9.15267 148.167 8.83533 147.775 8.63C147.383 8.41533 146.958 8.308 146.501 8.308C146.034 8.308 145.605 8.41533 145.213 8.63C144.83 8.83533 144.522 9.15267 144.289 9.582C144.056 10.0113 143.939 10.534 143.939 11.15C143.939 11.7753 144.051 12.3027 144.275 12.732C144.508 13.1613 144.816 13.4833 145.199 13.698C145.582 13.9033 146.002 14.006 146.459 14.006ZM155.806 7.188C156.74 7.188 157.496 7.47267 158.074 8.042C158.653 8.602 158.942 9.414 158.942 10.478V15H157.682V10.66C157.682 9.89467 157.491 9.31133 157.108 8.91C156.726 8.49933 156.203 8.294 155.54 8.294C154.868 8.294 154.332 8.504 153.93 8.924C153.538 9.344 153.342 9.95533 153.342 10.758V15H152.068V7.328H153.342V8.42C153.594 8.028 153.935 7.72467 154.364 7.51C154.803 7.29533 155.284 7.188 155.806 7.188ZM162.577 8.378V12.9C162.577 13.2733 162.657 13.5393 162.815 13.698C162.974 13.8473 163.249 13.922 163.641 13.922H164.579V15H163.431C162.722 15 162.19 14.8367 161.835 14.51C161.481 14.1833 161.303 13.6467 161.303 12.9V8.378H160.309V7.328H161.303V5.396H162.577V7.328H164.579V8.378H162.577ZM169.931 7.188C170.51 7.188 171.032 7.314 171.499 7.566C171.966 7.80867 172.33 8.17733 172.591 8.672C172.862 9.16667 172.997 9.76867 172.997 10.478V15H171.737V10.66C171.737 9.89467 171.546 9.31133 171.163 8.91C170.78 8.49933 170.258 8.294 169.595 8.294C168.923 8.294 168.386 8.504 167.985 8.924C167.593 9.344 167.397 9.95533 167.397 10.758V15H166.123V4.64H167.397V8.42C167.649 8.028 167.994 7.72467 168.433 7.51C168.881 7.29533 169.38 7.188 169.931 7.188ZM177.794 15.126C177.206 15.126 176.679 15.028 176.212 14.832C175.745 14.6267 175.377 14.3467 175.106 13.992C174.835 13.628 174.686 13.2127 174.658 12.746H175.974C176.011 13.1287 176.189 13.4413 176.506 13.684C176.833 13.9267 177.257 14.048 177.78 14.048C178.265 14.048 178.648 13.9407 178.928 13.726C179.208 13.5113 179.348 13.2407 179.348 12.914C179.348 12.578 179.199 12.3307 178.9 12.172C178.601 12.004 178.139 11.8407 177.514 11.682C176.945 11.5327 176.478 11.3833 176.114 11.234C175.759 11.0753 175.451 10.8467 175.19 10.548C174.938 10.24 174.812 9.83867 174.812 9.344C174.812 8.952 174.929 8.59267 175.162 8.266C175.395 7.93933 175.727 7.68267 176.156 7.496C176.585 7.3 177.075 7.202 177.626 7.202C178.475 7.202 179.161 7.41667 179.684 7.846C180.207 8.27533 180.487 8.86333 180.524 9.61H179.25C179.222 9.20867 179.059 8.88667 178.76 8.644C178.471 8.40133 178.079 8.28 177.584 8.28C177.127 8.28 176.763 8.378 176.492 8.574C176.221 8.77 176.086 9.02667 176.086 9.344C176.086 9.596 176.165 9.806 176.324 9.974C176.492 10.1327 176.697 10.2633 176.94 10.366C177.192 10.4593 177.537 10.5667 177.976 10.688C178.527 10.8373 178.975 10.9867 179.32 11.136C179.665 11.276 179.959 11.4907 180.202 11.78C180.454 12.0693 180.585 12.4473 180.594 12.914C180.594 13.334 180.477 13.712 180.244 14.048C180.011 14.384 179.679 14.65 179.25 14.846C178.83 15.0327 178.345 15.126 177.794 15.126Z" fill="#9DA6A5"/>
</svg>
